<?xml version="1.0" encoding="utf-8"?>
<!-- Generator: Adobe Illustrator 16.0.0, SVG Export Plug-In . SVG Version: 6.00 Build 0)  -->
<!DOCTYPE svg PUBLIC "-//W3C//DTD SVG 1.1//EN" "http://www.w3.org/Graphics/SVG/1.1/DTD/svg11.dtd">
<svg version="1.1"
	 id="svg11699" xmlns:dc="http://purl.org/dc/elements/1.1/" xmlns:cc="http://creativecommons.org/ns#" xmlns:rdf="http://www.w3.org/1999/02/22-rdf-syntax-ns#" xmlns:svg="http://www.w3.org/2000/svg" xmlns:sodipodi="http://sodipodi.sourceforge.net/DTD/sodipodi-0.dtd" xmlns:inkscape="http://www.inkscape.org/namespaces/inkscape" sodipodi:docname="New document 65" inkscape:version="0.48.4 r9939"
	 xmlns="http://www.w3.org/2000/svg" xmlns:xlink="http://www.w3.org/1999/xlink" x="0px" y="0px" width="724.176px"
	 height="806.757px" viewBox="0 0 724.176 806.757" enable-background="new 0 0 724.176 806.757" xml:space="preserve">
<sodipodi:namedview  fit-margin-left="0" fit-margin-top="0" showgrid="false" inkscape:cy="-225.19282" inkscape:cx="1235.6593" inkscape:zoom="0.35" borderopacity="1.0" bordercolor="#666666" pagecolor="#ffffff" id="base" inkscape:window-maximized="1" inkscape:window-y="24" inkscape:window-x="1649" inkscape:window-height="1056" inkscape:window-width="1871" fit-margin-bottom="0" inkscape:current-layer="layer1" inkscape:pageshadow="2" inkscape:document-units="px" inkscape:pageopacity="0.0" fit-margin-right="0">
	</sodipodi:namedview>
<g id="layer1" transform="translate(1193.5165,499.58787)" inkscape:label="Layer 1" inkscape:groupmode="layer">
	<g id="g11676" transform="matrix(0,-17.254173,17.254173,0,10442.693,-2252.8555)">
		
			<path id="path11666" sodipodi:type="arc" sodipodi:cx="-141.92842" sodipodi:cy="309.50256" sodipodi:rx="7.5474257" sodipodi:ry="7.5474257" fill="#FFFFFF" d="
			M-133.277-639.976c0,4.168-3.379,7.547-7.547,7.547c-4.168,0-7.547-3.379-7.547-7.547s3.379-7.547,7.547-7.547
			C-136.656-647.524-133.277-644.144-133.277-639.976z"/>
		
			<path id="path11668" sodipodi:type="arc" sodipodi:cx="-141.92842" sodipodi:cy="309.50256" sodipodi:rx="7.5474257" sodipodi:ry="7.5474257" fill="#FFFFFF" d="
			M-101.614-639.976c0,4.168-3.379,7.547-7.547,7.547c-4.168,0-7.547-3.379-7.547-7.547s3.379-7.547,7.547-7.547
			S-101.614-644.144-101.614-639.976z"/>
		
			<path id="path11670" sodipodi:type="arc" sodipodi:cx="-141.92842" sodipodi:cy="309.50256" sodipodi:rx="7.5474257" sodipodi:ry="7.5474257" fill="#FFFFFF" d="
			M-117.445-666.852c0,4.168-3.379,7.547-7.547,7.547c-4.168,0-7.547-3.379-7.547-7.547c0-4.168,3.379-7.547,7.547-7.547
			C-120.824-674.4-117.445-671.021-117.445-666.852z"/>
		
			<rect id="rect11672" x="-145.797" y="-657.421" transform="matrix(0.5 -0.866 0.866 0.5 502.0696 -442.2365)" fill="#FFFFFF" width="27.692" height="3"/>
		
			<rect id="rect11674" x="-132.15" y="-657.201" transform="matrix(-0.5 -0.866 0.866 -0.5 390.3963 -1086.0081)" fill="#FFFFFF" width="27.692" height="3"/>
	</g>
</g>
</svg>
